<svg width="64" height="91" viewBox="0 0 64 91" fill="none" xmlns="http://www.w3.org/2000/svg">
<path d="M12.716 71.396C12.716 72.2173 12.518 72.9873 12.122 73.706C11.7407 74.4247 11.132 75.004 10.296 75.444C9.47467 75.884 8.43333 76.104 7.172 76.104H4.598V82H1.518V66.644H7.172C8.36 66.644 9.372 66.8493 10.208 67.26C11.044 67.6707 11.6673 68.2353 12.078 68.954C12.5033 69.6727 12.716 70.4867 12.716 71.396ZM7.04 73.618C7.89067 73.618 8.52133 73.4273 8.932 73.046C9.34267 72.65 9.548 72.1 9.548 71.396C9.548 69.9 8.712 69.152 7.04 69.152H4.598V73.618H7.04ZM20.3148 82.198C19.1414 82.198 18.0854 81.9413 17.1468 81.428C16.2081 80.9 15.4674 80.1593 14.9248 79.206C14.3968 78.2527 14.1328 77.1527 14.1328 75.906C14.1328 74.6593 14.4041 73.5593 14.9468 72.606C15.5041 71.6527 16.2594 70.9193 17.2128 70.406C18.1661 69.878 19.2294 69.614 20.4028 69.614C21.5761 69.614 22.6394 69.878 23.5928 70.406C24.5461 70.9193 25.2941 71.6527 25.8368 72.606C26.3941 73.5593 26.6728 74.6593 26.6728 75.906C26.6728 77.1527 26.3868 78.2527 25.8148 79.206C25.2574 80.1593 24.4948 80.9 23.5268 81.428C22.5734 81.9413 21.5028 82.198 20.3148 82.198ZM20.3148 79.514C20.8721 79.514 21.3928 79.382 21.8768 79.118C22.3754 78.8393 22.7714 78.4287 23.0648 77.886C23.3581 77.3433 23.5048 76.6833 23.5048 75.906C23.5048 74.7473 23.1968 73.86 22.5808 73.244C21.9794 72.6133 21.2388 72.298 20.3588 72.298C19.4788 72.298 18.7381 72.6133 18.1368 73.244C17.5501 73.86 17.2568 74.7473 17.2568 75.906C17.2568 77.0647 17.5428 77.9593 18.1148 78.59C18.7014 79.206 19.4348 79.514 20.3148 79.514ZM28.1401 75.862C28.1401 74.63 28.3821 73.5373 28.8661 72.584C29.3647 71.6307 30.0394 70.8973 30.8901 70.384C31.7407 69.8707 32.6867 69.614 33.7281 69.614C34.5201 69.614 35.2754 69.79 35.9941 70.142C36.7127 70.4793 37.2847 70.934 37.7101 71.506V65.72H40.8341V82H37.7101V80.196C37.3287 80.7973 36.7934 81.2813 36.1041 81.648C35.4147 82.0147 34.6154 82.198 33.7061 82.198C32.6794 82.198 31.7407 81.934 30.8901 81.406C30.0394 80.878 29.3647 80.1373 28.8661 79.184C28.3821 78.216 28.1401 77.1087 28.1401 75.862ZM37.7321 75.906C37.7321 75.158 37.5854 74.52 37.2921 73.992C36.9987 73.4493 36.6027 73.0387 36.1041 72.76C35.6054 72.4667 35.0701 72.32 34.4981 72.32C33.9261 72.32 33.3981 72.4593 32.9141 72.738C32.4301 73.0167 32.0341 73.4273 31.7261 73.97C31.4327 74.498 31.2861 75.1287 31.2861 75.862C31.2861 76.5953 31.4327 77.2407 31.7261 77.798C32.0341 78.3407 32.4301 78.7587 32.9141 79.052C33.4127 79.3453 33.9407 79.492 34.4981 79.492C35.0701 79.492 35.6054 79.3527 36.1041 79.074C36.6027 78.7807 36.9987 78.37 37.2921 77.842C37.5854 77.2993 37.7321 76.654 37.7321 75.906ZM49.4302 72.342H47.2962V82H44.1722V72.342H42.7862V69.812H44.1722V69.196C44.1722 67.7 44.5976 66.6 45.4482 65.896C46.2989 65.192 47.5822 64.862 49.2982 64.906V67.502C48.5502 67.4873 48.0296 67.612 47.7362 67.876C47.4429 68.14 47.2962 68.6167 47.2962 69.306V69.812H49.4302V72.342ZM63.0862 69.812L55.5402 87.764H52.2622L54.9022 81.692L50.0182 69.812H53.4722L56.6182 78.326L59.8082 69.812H63.0862Z" fill="#EBEBEB"/>
<path d="M61 31.8201C61.0391 36.8867 59.7436 41.8742 57.2437 46.2814C56.92 46.8539 56.5771 47.4139 56.215 47.9614C56.036 48.2396 55.8035 48.4796 55.531 48.6674C55.2586 48.8551 54.9516 48.9869 54.6278 49.0551C54.304 49.1233 53.9699 49.1266 53.6449 49.0647C53.3198 49.0028 53.0103 48.877 52.7342 48.6946C52.4582 48.5122 52.2211 48.2768 52.0367 48.002C51.8523 47.7273 51.7242 47.4187 51.66 47.0941C51.5958 46.7695 51.5966 46.4354 51.6625 46.1111C51.7284 45.7869 51.858 45.4789 52.0437 45.2051C54.4296 41.5834 55.7896 37.3829 55.9791 33.0501C56.1686 28.7174 55.1806 24.4142 53.1201 20.598C51.0595 16.7818 48.0035 13.5953 44.2768 11.377C40.55 9.15883 36.2919 7.99183 31.955 8.00011C23.6187 8.01636 16.2275 12.3926 11.9312 18.9314C9.36292 22.8324 7.99625 27.4015 8.0007 32.072C8.00514 36.7425 9.3805 41.309 11.9562 45.2051C12.3214 45.7586 12.4518 46.4344 12.3186 47.084C12.1855 47.7336 11.7997 48.3037 11.2462 48.6689C10.6928 49.034 10.0169 49.1644 9.36729 49.0312C8.71771 48.8981 8.14763 48.5123 7.78246 47.9589C4.92646 43.6247 3.286 38.6035 3.03224 33.4192C2.77849 28.2349 3.92074 23.0775 6.33982 18.4852C8.75889 13.8928 12.3662 10.0339 16.7851 7.31101C21.2041 4.58813 26.2729 3.1011 31.4625 3.00511C31.645 3.00136 31.8262 3.00011 32.0075 3.00011C39.6717 2.98432 47.0291 6.01014 52.4648 11.4134C57.9004 16.8167 60.97 24.1559 61 31.8201Z" fill="#EBEBEB"/>
<path d="M14.5054 36.471L19.0364 59.011C19.3084 60.3641 20.6258 61.2405 21.9789 60.9685C23.332 60.6965 24.2084 59.3791 23.9364 58.026L19.4054 35.486C19.1334 34.1329 17.816 33.2565 16.4629 33.5285C15.1098 33.8005 14.2334 35.1179 14.5054 36.471Z" fill="#55ACEE"/>
<path d="M18.95 58.5025L17.8013 58.7338C16.0943 59.0774 14.3206 58.756 12.8428 57.8352C11.365 56.9144 10.2949 55.4637 9.85127 53.78C9.81752 53.65 9.78627 53.52 9.76002 53.3875L8.11377 45.2088C7.75701 43.4334 8.11974 41.589 9.12222 40.0809C10.1247 38.5728 11.6849 37.5245 13.46 37.1662L14.6088 36.935L16.6238 46.945L18.95 58.5025Z" fill="#EBEBEB"/>
<path d="M18.95 58.5025L17.8012 58.7338C16.0943 59.0775 14.3206 58.756 12.8428 57.8352C11.365 56.9144 10.2949 55.4638 9.85126 53.78C12.279 51.677 14.5431 49.3921 16.6237 46.945L18.95 58.5025Z" fill="#EBEBEB"/>
<path d="M57.8362 43.34L57.2437 46.2813C56.92 46.8538 56.5771 47.4138 56.215 47.9613C56.036 48.2395 55.8035 48.4795 55.531 48.6673C55.2586 48.855 54.9516 48.9868 54.6278 49.055C54.304 49.1232 53.9699 49.1265 53.6449 49.0646C53.3198 49.0027 53.0103 48.8769 52.7342 48.6945C52.4582 48.5121 52.2211 48.2767 52.0367 48.002C51.8523 47.7272 51.7242 47.4186 51.66 47.094C51.5958 46.7694 51.5966 46.4353 51.6625 46.111C51.7284 45.7868 51.8579 45.4788 52.0437 45.205C53.7384 42.6404 54.9213 39.7724 55.5275 36.7588C56.4683 37.5469 57.1793 38.5742 57.5856 39.7323C57.9919 40.8905 58.0785 42.1368 57.8362 43.34Z" fill="#EBEBEB"/>
<path d="M54.8725 14.1275L51.2862 17.7138C49.0516 14.692 46.1375 12.2383 42.7794 10.5508C39.4213 8.86339 35.7132 7.98959 31.955 8.00003C23.6187 8.01628 16.2275 12.3925 11.9312 18.9313L8.29376 15.2938C10.9164 11.567 14.3815 8.51174 18.4073 6.37642C22.4332 4.24111 26.9061 3.086 31.4625 3.00503C31.645 3.00128 31.8262 3.00003 32.0075 3.00003C36.4146 2.99015 40.7657 3.98757 44.7285 5.9161C48.6913 7.84463 52.161 10.6533 54.8725 14.1275Z" fill="#218FC4"/>
<path d="M44.554 35.4616L40.023 58.0016C39.751 59.3547 40.6274 60.6721 41.9805 60.9441C43.3336 61.2161 44.651 60.3397 44.923 58.9866L49.454 36.4466C49.726 35.0935 48.8496 33.7761 47.4965 33.5041C46.1434 33.2321 44.826 34.1085 44.554 35.4616Z" fill="#55ACEE"/>
<path d="M55.8862 45.2087L54.24 53.3875C53.8826 55.1628 52.8346 56.7234 51.3266 57.726C49.8186 58.7286 47.974 59.0911 46.1987 58.7337L45.05 58.5025L46.24 52.5937L49.3912 36.935L50.54 37.1662C52.3149 37.5249 53.8752 38.5728 54.8787 40.08C55.0169 40.2878 55.1434 40.5031 55.2575 40.725C55.9708 42.1046 56.1925 43.6861 55.8862 45.2087Z" fill="#EBEBEB"/>
<path d="M55.8862 45.2088L54.24 53.3875C53.8826 55.1628 52.8346 56.7234 51.3266 57.726C49.8186 58.7286 47.974 59.0911 46.1987 58.7338L45.05 58.5025L46.24 52.5938C49.6645 48.9738 52.6879 44.9945 55.2575 40.725C55.9708 42.1047 56.1925 43.6862 55.8862 45.2088Z" fill="#EBEBEB"/>
</svg>
